# xmcd CD database file
#
# Track frame offsets:
#	150
#	18462
#	40940
#	63386
#	84217
#	102285
#	126051
#	140612
#	157301
#	179465
#	204315
#
# Disc length: 2975 seconds
#
# Revision: 0
# Processed by: cddbd v1.5.1PL2 Copyright (c) Steve Scherf et al.
# Submitted via: CDex 1.51
#
DISCID=940b9d0b
DTITLE=Michael Starch Jazzensemble - Live
DYEAR=2003
DGENRE=Jazz
TTITLE0=Michael Starch Jazzensemble
TTITLE1=Giulietta
TTITLE2=Margaret Rose
TTITLE3=Chromatische Jazzfuge
TTITLE4=Moonlight By Night
TTITLE5=Musechs
TTITLE6=Du Könntest Die Erfüllung Sein
TTITLE7=New Shoes
TTITLE8=Dein Ist Mein Ganzes Herz
TTITLE9=Gedeaelamarkezkyblues
TTITLE10=Nuages (Harry Putz | Kontrabass)
EXTD=YEAR: 2003
EXTT0=
EXTT1=
EXTT2=
EXTT3=
EXTT4=
EXTT5=
EXTT6=
EXTT7=
EXTT8=
EXTT9=
EXTT10=
PLAYORDER=
